<svg xmlns="http://www.w3.org/2000/svg" xmlns:xlink="http://www.w3.org/1999/xlink" width="512" height="464" version="1.1" viewBox="0 0 512 464"><title>mdx</title><desc>Created with Sketch.</desc><g id="Page-1" fill="none" fill-rule="evenodd" stroke="none" stroke-width="1"><g id="Group-2" fill-rule="nonzero"><polygon id="Shape" fill="#367596" points="503.83 8.681 503.83 74.043 449.362 95.83 471.149 8.681"/><polygon id="Shape" fill="#5195AF" points="471.149 8.681 471.149 95.83 305.021 95.83 326.809 8.681"/><polygon id="Shape" fill="#27467A" points="8.17 8.681 8.17 74.043 40.851 95.83 326.809 95.83 326.809 8.681"/><polygon id="Shape" fill="#C6CCD9" points="503.83 74.043 503.83 455.319 471.149 455.319 427.574 264.681 471.149 74.043"/><rect id="Rectangle-path" width="462.979" height="381.277" x="8.17" y="74.043" fill="#E4EAF7"/><path id="Shape" fill="#000" d="M503.83,0.511 L8.17,0.511 C3.657,0.511 0,4.169 0,8.681 L0,455.319 C0,459.831 3.657,463.489 8.17,463.489 L503.83,463.489 C508.343,463.489 512,459.831 512,455.319 L512,368.17 C512,363.658 508.343,360 503.83,360 C499.317,360 495.66,363.658 495.66,368.17 L495.66,447.149 L16.34,447.149 L16.34,82.213 L495.66,82.213 L495.66,335.49 C495.66,340.002 499.317,343.66 503.83,343.66 C508.343,343.66 512,340.002 512,335.49 L512,8.681 C512,4.169 508.343,0.511 503.83,0.511 Z M16.34,16.851 L318.638,16.851 L318.638,65.872 L16.34,65.872 L16.34,16.851 Z M334.979,65.872 L334.979,16.851 L495.66,16.851 L495.66,65.872 L334.979,65.872 Z"/><path id="Shape" fill="#000" d="M415.591,32.647 C410.786,32.647 406.876,36.557 406.876,41.362 C406.876,46.167 410.786,50.077 415.591,50.077 C420.396,50.077 424.306,46.167 424.306,41.362 C424.306,36.557 420.397,32.647 415.591,32.647 Z"/><path id="Shape" fill="#000" d="M370.928,32.647 C366.123,32.647 362.213,36.557 362.213,41.362 C362.213,46.167 366.123,50.077 370.928,50.077 C375.733,50.077 379.643,46.167 379.643,41.362 C379.643,36.557 375.733,32.647 370.928,32.647 Z"/><path id="Shape" fill="#000" d="M460.255,32.647 C455.45,32.647 451.54,36.557 451.54,41.362 C451.54,46.167 455.45,50.077 460.255,50.077 C465.06,50.077 468.97,46.167 468.97,41.362 C468.97,36.557 465.06,32.647 460.255,32.647 Z"/></g><g id="Group" transform="translate(75.000000, 194.000000)"><polygon id="Path-2" fill="#000" points="35 30 76.067 71.442 119 30 119 111 104.067 111 104.067 67.674 76.067 94.047 51.8 67.674 51.8 111 35 111"/><rect id="Rectangle" width="331" height="128" x="7" y="7" stroke="#000" stroke-width="14" rx="5"/><polygon id="Path-3" fill="#000" points="169.571 29 184.429 29 184.429 83.133 204.857 64.467 216 75.667 177 113 138 73.8 149.143 64.467 169.571 83.133"/><polygon id="Path-4" fill="#55BCE4" points="230 35.514 262.049 67.442 231.885 97.492 242.297 107.865 272.478 77.798 301.913 109 313.21 97.745 281.831 68.363 314 36.315 303.646 26 271.474 58.051 239.426 26.123"/></g></g></svg>